<svg width="23" height="23" viewBox="0 0 23 23" fill="none" xmlns="http://www.w3.org/2000/svg">
<path fill-rule="evenodd" clip-rule="evenodd" d="M11.445 2.25201C11.4633 2.25067 11.4816 2.25 11.4999 2.25C12.9426 2.25 14.7526 2.90742 15.824 4.38583C16.9401 5.92589 17.1189 8.15532 15.6528 10.9868C15.6078 11.0737 15.5583 11.1488 15.525 11.1982C15.4235 11.3488 15.3503 11.5452 15.3536 11.6974C15.3551 11.7618 15.3696 11.8115 15.3967 11.8561C15.4238 11.9005 15.4847 11.9746 15.63 12.0562C16.2506 12.3887 17.1029 13.0267 18.0347 13.9741C18.3251 14.2694 18.3212 14.7443 18.0258 15.0347C17.7305 15.3252 17.2557 15.3212 16.9652 15.0259C16.1019 14.1481 15.3664 13.6158 14.917 13.3759L14.9057 13.3699L14.9057 13.3698C14.1884 12.9709 13.868 12.3612 13.854 11.7307C13.8415 11.1657 14.0743 10.6666 14.2813 10.3596C14.3073 10.3211 14.3171 10.3043 14.3208 10.2971C15.6093 7.80848 15.2985 6.21692 14.6094 5.26603C13.8818 4.26195 12.5868 3.75845 11.5267 3.75011C10.2671 3.84724 9.47401 4.22483 8.97441 4.69089C8.47034 5.16111 8.19296 5.78861 8.0897 6.5106C7.87791 7.99147 8.42727 9.70093 8.98927 10.5833C9.40755 11.1869 9.47685 11.8131 9.24454 12.3613C9.03556 12.8544 8.63138 13.1674 8.32956 13.3302C8.18695 13.4071 8.04897 13.4449 7.96248 13.466C6.71904 13.7687 5.96719 14.5456 5.49065 15.4457C5.00381 16.3651 4.82081 17.3892 4.74554 18.0811C4.70075 18.4929 4.33062 18.7904 3.91884 18.7456C3.50705 18.7008 3.20955 18.3307 3.25434 17.9189C3.33792 17.1505 3.54849 15.9081 4.16501 14.7437C4.79182 13.5599 5.85312 12.4357 7.6077 12.0086C7.617 12.0063 7.62396 12.0045 7.62921 12.003C7.62996 12.0028 7.63065 12.0026 7.6313 12.0024C7.74862 11.9358 7.83434 11.8446 7.86344 11.776C7.87402 11.751 7.87889 11.7266 7.87395 11.6908C7.86853 11.6515 7.84624 11.5655 7.75183 11.4311C7.74587 11.4226 7.74009 11.414 7.73449 11.4053C7.01443 10.2842 6.33168 8.208 6.60481 6.29823C6.74447 5.32169 7.14093 4.34992 7.95121 3.59404C8.76226 2.83745 9.91599 2.36424 11.445 2.25201Z" fill="#263238"/>
<path d="M20 17C20 17.5523 19.5523 18 19 18C18.4477 18 18 17.5523 18 17C18 16.4477 18.4477 16 19 16C19.5523 16 20 16.4477 20 17Z" fill="#263238"/>
<path d="M23 5.5C23 8.53757 20.5376 11 17.5 11C14.4624 11 12 8.53757 12 5.5C12 2.46243 14.4624 0 17.5 0C20.5376 0 23 2.46243 23 5.5Z" fill="#FF4114"/>
<path d="M17.3199 8.8999V3.53857L16.0895 4.82764L15.4987 4.22217L17.442 2.22998H18.3209V8.8999H17.3199Z" fill="white"/>
<path fill-rule="evenodd" clip-rule="evenodd" d="M17.2631 2.05541C17.3101 2.00718 17.3746 1.97998 17.442 1.97998H18.3209C18.459 1.97998 18.5709 2.09191 18.5709 2.22998V8.8999C18.5709 9.03797 18.459 9.1499 18.3209 9.1499H17.3199C17.1819 9.1499 17.0699 9.03797 17.0699 8.8999V4.16255L16.2703 5.00026C16.2235 5.04933 16.1587 5.07726 16.0909 5.07763C16.023 5.07801 15.9579 5.05079 15.9105 5.00224L15.3197 4.39677C15.225 4.29967 15.225 4.14471 15.3197 4.0476L17.2631 2.05541ZM17.5474 2.47998L15.8479 4.22214L16.0875 4.46764L17.1391 3.36596C17.2097 3.29205 17.3181 3.26851 17.4129 3.30651C17.5078 3.34451 17.5699 3.4364 17.5699 3.53857V8.6499H18.0709V2.47998H17.5474Z" fill="white"/>
</svg>
