<svg width="23" height="23" viewBox="0 0 23 23" fill="none" xmlns="http://www.w3.org/2000/svg">
<path d="M6.5 16.4999L11.0145 17.4028C11.3374 17.4674 11.6662 17.4999 11.9954 17.4999C13.4511 17.4999 13.234 17.4999 13.5 17.4999H16.5C16.7275 17.4999 17.5 17.4999 18 17.4999C19.4386 16.0613 19.5 12.4258 19.5 10.4999C19.4588 10.2405 19.3749 9.93322 19.1838 9.76321C18.9927 9.5932 18.7504 9.4999 18.5 9.4999H14.5C13.821 9.35334 13.5 8.55546 13.5 7.9999V5.22212C13.5 5.22212 13.5 3 11.5 3V3.01562V4.5C11.5 6.5 10.6705 7.70227 10 8.5C9.32952 9.29773 8.5 9.5 7 9.4999" stroke="#263238" stroke-linecap="round" stroke-linejoin="round"/>
<path d="M3.5 8.5H6.5V17.5H3.5" stroke="#263238" stroke-linecap="round" stroke-linejoin="round"/>
</svg>
