<svg width="23" height="23" viewBox="0 0 23 23" fill="none" xmlns="http://www.w3.org/2000/svg">
<path d="M16.5 6.5001L11.9855 5.5972C11.6626 5.53262 11.3338 5.5001 11.0046 5.5001C9.54887 5.5001 9.76596 5.5001 9.5 5.5001L6.5 5.5001C6.2725 5.5001 5.5 5.5001 5 5.5001C3.56144 6.93866 3.5 10.5742 3.5 12.5001C3.54117 12.7595 3.62514 13.0668 3.81622 13.2368C4.00729 13.4068 4.24958 13.5001 4.5 13.5001L8.5 13.5001C9.17903 13.6467 9.5 14.4445 9.5 15.0001L9.5 17.7779C9.5 17.7779 9.5 20 11.5 20L11.5 19.9844L11.5 18.5C11.5 16.5 12.3295 15.2977 13 14.5C13.6705 13.7023 14.5 13.5 16 13.5001" stroke="#263238" stroke-linecap="round" stroke-linejoin="round"/>
<path d="M19.5 14.5L16.5 14.5L16.5 5.5L19.5 5.5" stroke="#263238" stroke-linecap="round" stroke-linejoin="round"/>
</svg>
